# AST/ASF file generated using VICON BodyLanguage
# -----------------------------------------------
:version 1.10
:name VICON
:units
  mass 1.0
  length 0.45
  angle deg
:documentation
   .ast/.asf automatically generated from VICON data using
   VICON BodyBuilder and BodyLanguage model FoxedUp or BRILLIANT.MOD
:root
   order TX TY TZ RX RY RZ
   axis XYZ
   position 0 0 0  
   orientation 0 0 0 
:bonedata
  begin
     id 1 
     name lhipjoint
     direction 0.576517 -0.752066 0.319413 
     length 2.45433 
     axis 0 0 0  XYZ
  end
  begin
     id 2 
     name lfemur
     direction 0.34202 -0.939693 0  
     length 7.54459  
     axis 0 0 20  XYZ
    dof rx ry rz
    limits (-160.0 20.0)
           (-70.0 70.0)
           (-60.0 70.0)
  end
  begin
     id 3 
     name ltibia
     direction 0.34202 -0.939693 0   
     length 7.73986   
     axis 0 0 20   XYZ
    dof rx
    limits (-10.0 170.0)
  end
  begin
     id 4 
     name lfoot
     direction 0.090693 -0.249177 0.964202   
     length 2.28437   
     axis -90 7.62852e-016 20   XYZ
    dof rx rz
    limits (-45.0 90.0)
           (-70.0 20.0)
  end
  begin
     id 5 
     name ltoes
     direction 1.5356e-011 -4.21928e-011 1   
     length 1.14243   
     axis -90 7.62852e-016 20   XYZ
    dof rx
    limits (-90.0 20.0)
  end
  begin
     id 6 
     name rhipjoint
     direction -0.573937 -0.753736 0.320122   
     length 2.44889  
     axis 0 0 0  XYZ 
  end
  begin
     id 7 
     name rfemur
     direction -0.34202 -0.939693 0   
     length 7.50166   
     axis 0 0 -20   XYZ
    dof rx ry rz
    limits (-160.0 20.0)
           (-70.0 70.0)
           (-70.0 60.0)
  end
  begin
     id 8 
     name rtibia
     direction -0.34202 -0.939693 0   
     length 7.54266   
     axis 0 0 -20   XYZ
    dof rx
    limits (-10.0 170.0)
 end
 begin
     id 9 
     name rfoot
     direction -0.114017 -0.31326 0.942798   
     length 2.34212  
     axis -90 -7.62852e-016 -20   XYZ
    dof rx rz
    limits (-45.0 90.0)
           (-20.0 70.0)
  end
  begin
     id 10 
     name rtoes
     direction -1.53557e-011 -4.21867e-011 1   
     length 1.16246   
     axis -90 -7.62852e-016 -20   XYZ
    dof rx
    limits (-90.0 20.0)
  end
  begin
     id 11 
     name lowerback
     direction -0.0228371 0.999155 -0.034167   
     length 2.0537   
     axis 0 0 0   XYZ
    dof rx ry rz
    limits (-20.0 45.0)
           (-30.0 30.0)
           (-30.0 30.0)
  end
  begin
     id 12 
     name upperback
     direction 0.0198981 0.999794 0.00389455   
     length 2.05302   
     axis 0 0 0   XYZ
    dof rx ry rz
    limits (-20.0 45.0)
           (-30.0 30.0)
           (-30.0 30.0)
  end
  begin
     id 13 
     name thorax
     direction 0.0304566 0.99935 0.0192987   
     length 2.05315   
     axis 0 0 0   XYZ
    dof rx ry rz
    limits (-20.0 45.0)
           (-30.0 30.0)
           (-30.0 30.0)
  end
  begin
     id 14 
     name lowerneck
     direction -0.0196762 0.99417 0.106017   
     length 1.82056   
     axis 0 0 0   XYZ
    dof rx ry rz
    limits (-20.0 45.0)
           (-30.0 30.0)
           (-30.0 30.0)
  end
  begin
     id 15 
     name upperneck
     direction 0.00517787 0.9802 -0.197944   
     length 1.83835   
     axis 0 0 0   XYZ
    dof rx ry rz
    limits (-20.0 45.0)
           (-30.0 30.0)
           (-30.0 30.0)
  end
  begin
     id 16
     name head
     direction 0.00211419 0.996945 -0.078081  
     length 1.85629  
     axis 0 0 0   XYZ
    dof rx ry rz
    limits (-20.0 45.0)
           (-30.0 30.0)
           (-30.0 30.0)
  end
  begin
     id 17 
     name lclavicle
     direction 0.930001 0.365811 -0.0357824  
     length 3.81961  
     axis 0 0 0   XYZ
    dof ry rz
    limits (-20.0 10.0)
           (0.0 20.0)
  end
  begin
     id 18 
     name lhumerus
     direction 1 -4.48968e-011 -3.06644e-027   
     length 5.14507   
     axis 180 -30 -90   XYZ
    dof rx ry rz
    limits (-60.0 90.0)
           (-90.0 90.0)
           (-90.0 90.0)
  end
  begin
     id 19
     name lradius
     direction 1 -4.48965e-011 9.06925e-028   
     length 3.50646   
     axis 180 -30 -90   XYZ
    dof rx
    limits (-10.0 170.0)
  end
  begin
     id 20
     name lwrist
     direction 1 -4.48957e-011 1.03922e-027   
     length 1.75323   
     axis -2.56395e-016 90 90   XYZ
    dof ry
    limits (-180.0 0.0)
 end
  begin
     id 21 
     name lhand
     direction 1 -4.48967e-011 2.08017e-027   
     length 0.629969   
     axis -1.32723e-015 90 90   XYZ
    dof rx rz
    limits (-90.0 90.0)
           (-45.0 45.0)
  end
  begin
     id 22 
     name lfingers
     direction 1 -4.49089e-011 4.20095e-027   
     length 0.507897   
     axis -2.6545e-015 90 90   XYZ
    dof rx
    limits (0.0 90.0)
  end
  begin
     id 23
     name lthumb
     direction 0.707107 -6.35001e-011 0.707107   
     length 0.729241   
     axis -90 45 5.05613e-014   XYZ
    dof rx rz
    limits (-45.0 45.0)
           (-45.0 45.0)
  end
  begin
     id 24 
     name rclavicle
     direction -0.881882 0.464123 -0.0829113   
     length 3.47515  
     axis 0 0 0   XYZ 
    dof ry rz
    limits (-10.0 20.0)
           (-20.0 0.0)
  end
  begin
     id 25 
     name rhumerus
     direction -1 -4.48961e-011 -1.55672e-027  
     length 5.232   
     axis 180 30 90   XYZ
    dof rx ry rz
    limits (-90.0 60.0)
           (-90.0 90.0)
           (-90.0 90.0)
  end
  begin
     id 26 
     name rradius
     direction -1 -4.48963e-011 6.18178e-029   
     length 3.65641   
     axis 180 30 90   XYZ
    dof rx
    limits (-10.0 170.0)
  end
  begin
     id 27 
     name rwrist
     direction -1 -4.48982e-011 1.04136e-027   
     length 1.8282   
     axis -2.56395e-016 -90 -90   XYZ
    dof ry
    limits (-180.0 0.0)
  end
  begin
     id 28
     name rhand
     direction -1 -4.48929e-011 2.07378e-027   
     length 0.656807   
     axis -1.32723e-015 -90 -90   XYZ
    dof rx rz
    limits (-90.0 90.0)
           (-45.0 45.0)
  end
  begin
     id 29
     name rfingers
     direction -1 -4.489e-011 4.13816e-027   
     length 0.529535   
     axis -2.6545e-015 -90 -90   XYZ
    dof rx
    limits (0.0 90.0)
  end
  begin
     id 30
     name rthumb
     direction -0.707107 -6.34843e-011 0.707107   
     length 0.760309   
     axis -90 -45 -5.05613e-014   XYZ
    dof rx rz
    limits (-45.0 45.0)
           (-45.0 45.0)
  end
:hierarchy
  begin
    root lhipjoint rhipjoint lowerback
    lhipjoint lfemur
    lfemur ltibia
    ltibia lfoot
    lfoot ltoes
    rhipjoint rfemur
    rfemur rtibia
    rtibia rfoot
    rfoot rtoes
    lowerback upperback
    upperback thorax
    thorax lowerneck lclavicle rclavicle
    lowerneck upperneck
    upperneck head
    lclavicle lhumerus
    lhumerus lradius
    lradius lwrist
    lwrist lhand lthumb
    lhand lfingers
    rclavicle rhumerus
    rhumerus rradius
    rradius rwrist
    rwrist rhand rthumb
    rhand rfingers
  end

#!OML:ASF H:\ManfredETheater\Project 1\Capture day 1\Session 1\subject.ASF
:FULLY-SPECIFIED
:DEGREES
32
root -7.34318 15.5076 34.9889 -150.253 36.612 -183.071
lowerback 39.8061 -2.41707 0.3746
upperback 10.2337 -0.416804 0.376071
thorax -7.89181 0.703387 0.245469
lowerneck -4.64065 0.728957 -0.0959181
upperneck -17.8767 0.83189 -9.47317
head -4.5308 1.51257 -2.99975
rclavicle 6.75868e-015 9.54166e-015
rhumerus -9.45809 18.4771 -60.2291
rradius 76.128
rwrist 4.50732
rhand -34.8064 -2.29913
rfingers 7.12502
rthumb -7.95788 -32.1293
lclavicle 6.75868e-015 9.54166e-015
lhumerus -16.2411 11.2491 78.7586
lradius 84.1129
lwrist 18.2669
lhand -30.1441 -5.64151
lfingers 7.12502
lthumb -3.45665 24.3102
rfemur -67.065 -6.18225 25.3439
rtibia 72.6992
rfoot -22.7763 -12.4123
rtoes -40.3262
lfemur -43.6281 4.83735 -29.3221
ltibia 84.2395
lfoot -4.80526 -0.636303
ltoes -10.1527
33
root -7.27219 15.4681 34.6459 -149.636 37.0917 -182.582
lowerback 41.0473 -2.44013 0.0712769
upperback 10.6666 -0.396593 0.270345
thorax -7.78922 0.767632 0.279563
lowerneck -4.14749 0.232085 -0.514004
upperneck -18.6385 0.171193 -8.87267
head -4.88926 1.23488 -2.74661
rclavicle -6.2816e-014 -1.02672e-013
rhumerus -5.82698 18.3484 -60.0278
rradius 76.0852
rwrist 5.05567
rhand -35.1349 -2.33515
rfingers 7.12502
rthumb -8.27496 -32.1531
lclavicle -6.2816e-014 -1.02672e-013
lhumerus -14.9654 12.2874 78.2845
lradius 81.7612
lwrist 18.8322
lhand -30.8931 -5.24476
lfingers 7.12502
lthumb -4.17992 24.694
rfemur -65.8154 -5.60459 24.6555
rtibia 72.6136
rfoot -23.8782 -13.2322
rtoes -41.0128
lfemur -47.7902 5.82237 -28.1314
ltibia 87.416
lfoot -6.8674 0.749302
ltoes -8.52836
34
root -7.19818 15.4255 34.2972 -149.131 37.557 -182.028
lowerback 42.529 -2.42765 -0.209333
upperback 11.0716 -0.315739 0.13448
thorax -7.76977 0.864837 0.241887
lowerneck -3.68658 -0.260593 -0.776653
upperneck -19.3133 -0.48685 -8.30501
head -5.20925 0.942033 -2.52104
rclavicle -1.53064e-014 1.01007e-013
rhumerus -2.24214 18.1004 -59.8599
rradius 76.0983
rwrist 5.65781
rhand -35.3884 -2.33121
rfingers 7.12502
rthumb -8.5196 -32.1393
lclavicle -1.53064e-014 1.01007e-013
lhumerus -13.5995 13.1278 77.7116
lradius 79.5887
lwrist 19.3525
lhand -31.6328 -4.79887
lfingers 7.12502
lthumb -4.89421 25.1246
rfemur -64.4239 -5.09623 24.0693
rtibia 72.536
rfoot -24.9845 -14.0207
rtoes -41.5901
lfemur -51.8113 6.9239 -26.8572
ltibia 90.1047
lfoot -8.88064 2.06031
ltoes -6.89481
35
root -7.1214 15.3839 33.9414 -148.808 37.9895 -181.442
lowerback 44.3026 -2.3931 -0.454066
upperback 11.4444 -0.181502 -0.0334506
thorax -7.84108 0.994349 0.123529
lowerneck -3.23666 -0.752799 -0.877971
upperneck -19.8974 -1.14963 -7.78816
head -5.49488 0.630284 -2.33033
rclavicle -3.30976e-014 -3.4396e-014
rhumerus 1.26178 17.7387 -59.7012
rradius 76.1769
rwrist 6.29828
rhand -35.6107 -2.32614
rfingers 7.12502
rthumb -8.73413 -32.1254
lclavicle -3.30976e-014 -3.4396e-014
lhumerus -12.1374 13.7399 77.0379
lradius 77.6208
lwrist 19.9963
lhand -32.3434 -4.3396
lfingers 7.12502
lthumb -5.58026 25.5669
rfemur -62.8156 -4.71072 23.5777
rtibia 72.4585
rfoot -26.0112 -14.923
rtoes -42.2191
lfemur -55.5826 8.10953 -25.5241
ltibia 92.2314
lfoot -10.7861 3.19877
ltoes -5.39475
36
root -7.04217 15.3453 33.5792 -148.653 38.3982 -180.869
lowerback 46.3038 -2.33158 -0.675991
upperback 11.7754 -0.00148253 -0.2415
thorax -7.98138 1.15139 -0.0769183
lowerneck -2.77675 -1.24681 -0.816088
upperneck -20.3897 -1.82071 -7.32275
head -5.75125 0.297031 -2.17549
rclavicle -1.68097e-014 -7.03535e-014
rhumerus 4.65691 17.2617 -59.5468
rradius 76.311
rwrist 6.99825
rhand -35.8597 -2.27433
rfingers 7.12502
rthumb -8.97438 -32.0634
lclavicle -1.68097e-014 -7.03535e-014
lhumerus -10.5648 14.0963 76.2435
lradius 75.8604
lwrist 20.8568
lhand -33.0191 -4.00781
lfingers 7.12502
lthumb -6.2327 25.8805
rfemur -61.0201 -4.45865 23.1443
rtibia 72.3606
rfoot -26.9134 -15.8715
rtoes -42.8473
lfemur -59.117 9.34716 -24.1946
ltibia 93.7502
lfoot -12.5513 4.11125
ltoes -4.26018
37
root -6.96118 15.3111 33.2121 -148.645 38.7731 -180.369
lowerback 49.4179 -2.24095 -0.944215
upperback 11.0488 0.1521 -0.435638
thorax -8.121 1.30694 -0.266674
lowerneck -2.32405 -1.71068 -0.748863
upperneck -20.7844 -2.45104 -6.87409
head -5.97264 -0.0247668 -2.02137
rclavicle -1.85864e-014 6.81831e-014
rhumerus 8.06604 16.7943 -59.2949
rradius 76.4604
rwrist 7.69276
rhand -36.1434 -2.16157
rfingers 7.12502
rthumb -9.24813 -31.9387
lclavicle -1.85864e-014 6.81831e-014
lhumerus -8.9077 14.3421 75.3612
lradius 74.3153
lwrist 21.8811
lhand -33.6353 -3.78042
lfingers 7.12502
lthumb -6.82747 26.0895
rfemur -59.0891 -4.35866 22.7064
rtibia 72.2161
rfoot -27.7165 -16.7315
rtoes -43.4516
lfemur -62.4537 10.5732 -22.9411
ltibia 94.6338
lfoot -14.1427 4.7912
ltoes -3.56482
38
root -6.8787 15.2808 32.8403 -148.688 39.1351 -179.956
lowerback 51.6494 -2.15295 -1.23979
upperback 11.1686 0.296634 -0.654493
thorax -8.27295 1.45235 -0.453139
lowerneck -1.88317 -2.14592 -0.710755
upperneck -21.0861 -3.03939 -6.41804
head -6.159 -0.33291 -1.85564
rclavicle 4.45278e-014 1.06549e-013
rhumerus 11.4834 16.3284 -58.941
rradius 76.6151
rwrist 8.40021
rhand -36.4757 -2.02019
rfingers 7.12502
rthumb -9.56883 -31.7829
lclavicle 4.45278e-014 1.06549e-013
lhumerus -7.14059 14.4926 74.3885
lradius 72.9445
lwrist 22.9431
lhand -34.1788 -3.70825
lfingers 7.12502
lthumb -7.35214 26.144
rfemur -57.1174 -4.36653 22.2084
rtibia 72.0001
rfoot -28.4452 -17.4992
rtoes -44.0851
lfemur -65.68 11.7689 -21.8269
ltibia 94.8797
lfoot -15.5239 5.25352
ltoes -3.3496
39
root -6.79535 15.2517 32.4648 -148.662 39.4895 -179.636
lowerback 53.6395 -2.06267 -1.53949
upperback 11.2735 0.406038 -0.893476
thorax -8.36237 1.57616 -0.648741
lowerneck -1.45634 -2.55195 -0.732077
upperneck -21.292 -3.5813 -5.92527
head -6.3074 -0.625167 -1.66503
rclavicle -2.64384e-014 -2.43138e-014
rhumerus 14.9056 15.8567 -58.493
rradius 76.7459
rwrist 9.10062
rhand -36.8642 -1.84476
rfingers 7.12502
rthumb -9.94366 -31.5899
lclavicle -2.64384e-014 -2.43138e-014
lhumerus -5.26546 14.5485 73.3145
lradius 71.7032
lwrist 23.8369
lhand -34.6477 -3.80804
lfingers 7.12502
lthumb -7.80477 26.0279
rfemur -55.2498 -4.45249 21.6241
rtibia 71.7034
rfoot -29.0981 -18.1693
rtoes -44.7788
lfemur -68.9343 12.9056 -20.9134
ltibia 94.5112
lfoot -16.6797 5.55354
ltoes -3.51719
